<svg version="1.1" id="Layer_1" xmlns="http://www.w3.org/2000/svg" xmlns:xlink="http://www.w3.org/1999/xlink" x="0px" y="0px"
	 width="100%" viewBox="0 0 1920 1103" enable-background="new 0 0 1920 1103" xml:space="preserve">
<path fill="#000000" opacity="1.000000" stroke="none" 
	d="
M1911.000000,1104.000000 
	C1274.333374,1104.000000 637.666687,1104.000000 1.000000,1104.000000 
	C1.000000,1082.582764 1.000000,1061.254028 1.408776,1039.295410 
	C1.878369,1034.880859 2.090333,1031.090576 1.955438,1027.312744 
	C1.832439,1023.868164 1.333333,1020.437073 1.000000,1017.000000 
	C1.000000,1016.555542 1.000000,1016.111145 1.393504,1015.207397 
	C2.191337,1013.234314 2.855795,1011.737305 2.955095,1010.203674 
	C3.391851,1003.458679 3.626765,996.700928 4.005666,989.951782 
	C4.983781,972.529236 5.936368,955.104797 7.027740,937.689209 
	C7.540272,929.510498 8.193786,921.333740 9.061255,913.185730 
	C10.234115,902.169128 11.747249,891.189148 12.978198,880.178162 
	C14.085287,870.275085 14.709079,860.309753 16.083185,850.446716 
	C18.141197,835.674805 20.683393,820.970459 22.993732,806.233337 
	C25.353870,791.178528 27.301746,776.047180 30.120626,761.079285 
	C33.730701,741.910400 37.416531,722.716614 42.178501,703.812927 
	C49.274364,675.644226 56.482166,647.448181 65.244629,619.771057 
	C73.260078,594.453430 83.038879,569.667175 92.706078,544.906616 
	C103.128242,518.212402 116.527603,492.959930 131.848007,469.114838 
	C123.149956,462.512695 114.082474,456.493042 106.038834,449.324554 
	C93.658096,438.290955 83.169655,425.506195 73.911331,411.668335 
	C59.316334,389.854126 48.968479,366.210754 41.482079,341.116486 
	C33.589466,314.660675 30.811697,287.538452 30.143969,260.153290 
	C29.908747,250.506271 31.011675,240.783340 32.078232,231.158768 
	C33.419319,219.056824 34.404255,206.794098 37.223373,195.002533 
	C43.090664,170.461304 51.593666,146.816116 63.963356,124.622772 
	C78.207733,99.065948 96.824356,77.236923 120.048180,59.710384 
	C140.981400,43.912518 165.017975,34.503590 191.212997,32.187828 
	C209.042175,30.611643 226.799728,32.339520 244.080200,37.926846 
	C280.345032,49.652420 307.948730,72.704521 329.965942,103.070839 
	C341.724609,119.288483 351.018524,136.903152 358.198303,155.615204 
	C365.251709,173.997787 370.951691,192.738403 372.993073,212.424393 
	C374.358337,225.590073 376.553864,238.747116 376.771973,251.934586 
	C377.041840,268.250275 376.458710,284.680664 374.711914,300.896454 
	C373.373596,313.320801 369.973419,325.567566 366.934753,337.754761 
	C360.912506,361.908234 350.922546,384.437622 337.848053,405.588013 
	C334.333496,411.273407 330.392395,416.695129 327.211243,421.402985 
	C383.291656,481.175110 410.676849,554.748962 435.207275,630.439270 
	C455.001587,575.288574 477.989716,522.639099 513.555725,478.059937 
	C502.127350,465.942017 490.593140,454.903076 480.483521,442.685364 
	C468.328888,427.996185 459.326202,411.127075 453.153137,393.099152 
	C448.280212,378.868103 444.166321,364.278687 441.087524,349.561371 
	C438.397552,336.702820 436.712799,323.475800 436.252411,310.353027 
	C435.780151,296.892578 436.988281,283.332367 438.112915,269.870270 
	C438.935883,260.018921 439.800018,249.971207 442.453033,240.518219 
	C446.683929,225.443054 451.478180,210.380981 457.715149,196.044632 
	C470.034576,167.727203 487.797150,143.035660 512.988159,124.742630 
	C537.057312,107.264244 563.717468,97.699623 594.303528,100.791031 
	C609.845825,102.361931 624.242920,106.476982 638.025574,113.498299 
	C661.338806,125.374756 679.354553,143.007553 694.061279,164.375793 
	C703.967163,178.768707 711.963989,194.129318 717.863220,210.542267 
	C724.157654,228.054779 729.562317,245.791260 730.063354,264.652100 
	C730.184021,269.193573 731.152405,273.707855 731.626770,278.245575 
	C732.459412,286.209595 733.993408,294.200012 733.809937,302.146545 
	C733.549866,313.410400 732.323059,324.685699 730.898621,335.878387 
	C729.738342,344.995178 727.890442,354.042267 725.977295,363.041595 
	C722.355835,380.077087 716.335632,396.398743 708.407959,411.786133 
	C701.898987,424.419922 693.604431,436.133789 686.203003,448.091095 
	C736.089417,491.971100 762.766968,551.169739 787.295898,612.179321 
	C787.957275,610.217651 788.436768,608.793518 788.917542,607.369934 
	C792.610168,596.437927 795.823120,585.314514 800.093079,574.612915 
	C809.707947,550.515442 819.325317,526.392517 829.967285,502.741364 
	C836.343079,488.571503 843.972961,474.841064 852.291809,461.706390 
	C860.157410,449.287384 869.322693,437.633606 878.557556,426.159302 
	C885.054382,418.086975 892.625366,410.879059 899.579956,403.431610 
	C898.032593,401.446411 896.517517,399.309845 894.808960,397.341156 
	C880.882812,381.294647 871.188599,362.846985 863.991150,342.999329 
	C858.324463,327.372864 853.596008,311.511505 851.936157,294.859650 
	C850.771973,283.180298 848.781494,271.557739 848.169312,259.857025 
	C847.670166,250.315796 848.430420,240.680740 849.061218,231.115585 
	C849.804077,219.852783 850.019226,208.420319 852.242737,197.421143 
	C855.707031,180.283554 860.281860,163.337891 865.092590,146.512894 
	C871.896545,122.716904 883.174927,100.829140 896.563660,80.194862 
	C907.820435,62.846134 921.444946,47.329018 937.432129,33.950813 
	C951.811279,21.918179 967.435181,12.187016 985.300171,6.379709 
	C992.067932,4.179721 999.092468,2.769956 1006.000000,1.000000 
	C1015.024902,1.000000 1024.049805,1.000000 1033.681152,1.391448 
	C1035.778076,1.860753 1037.307129,1.749260 1038.752930,2.044959 
	C1059.456787,6.279348 1077.615479,15.683088 1093.207520,29.807695 
	C1107.468994,42.726944 1118.390259,58.236618 1127.064087,75.400955 
	C1137.517334,96.086494 1144.868408,117.792145 1147.911133,140.756256 
	C1150.120361,157.429993 1151.616577,174.214294 1152.863403,190.991486 
	C1153.360474,197.681366 1152.331299,204.484711 1151.994873,211.236313 
	C1151.978271,211.565948 1151.964844,211.898148 1151.912964,212.223267 
	C1150.611694,220.388412 1149.220215,228.540283 1148.021973,236.720459 
	C1146.585083,246.528900 1146.120483,256.556305 1143.807983,266.144684 
	C1138.235962,289.247375 1130.501831,311.631470 1119.650024,332.906067 
	C1107.346924,357.026184 1092.730347,379.385132 1072.656494,397.831848 
	C1066.362549,403.615631 1059.988892,409.312653 1053.622559,415.075806 
	C1069.701172,433.083313 1084.642822,452.459045 1095.936523,474.306854 
	C1106.995605,495.700623 1118.225830,517.083801 1127.729004,539.182068 
	C1137.182495,561.164856 1144.581421,584.031189 1153.105103,607.116638 
	C1155.689697,601.127136 1157.777710,595.393616 1160.556396,590.016907 
	C1168.898193,573.874756 1177.033081,557.596191 1186.127686,541.879517 
	C1199.685425,518.449829 1215.877930,497.027679 1235.850830,478.457367 
	C1250.299438,465.023499 1266.273560,454.467804 1284.705688,447.646179 
	C1284.427979,446.933685 1284.173340,446.169800 1283.840332,445.441803 
	C1276.906494,430.284882 1268.831543,415.530914 1263.315063,399.875275 
	C1256.744507,381.227814 1251.698608,361.969177 1249.944946,342.063599 
	C1248.769043,328.715820 1246.569458,315.411621 1246.216919,302.051300 
	C1245.878906,289.241180 1246.897217,276.341949 1248.125366,263.559296 
	C1249.287964,251.457397 1250.729980,239.282196 1253.412231,227.448212 
	C1258.350464,205.661453 1265.686523,184.630966 1276.520630,164.946671 
	C1286.893677,146.100021 1299.427979,129.031616 1316.191772,115.275566 
	C1333.048950,101.442696 1352.089355,92.297363 1373.811768,90.161911 
	C1393.734131,88.203400 1413.157837,91.388016 1431.372925,100.106598 
	C1456.483154,112.125572 1476.533936,130.396255 1492.727051,152.622833 
	C1509.953735,176.268066 1522.980469,202.283157 1531.003784,230.530518 
	C1534.165039,241.660065 1536.105957,253.131424 1538.788208,264.402924 
	C1542.907349,281.711792 1545.538696,299.237885 1545.903687,317.013885 
	C1546.107056,326.921844 1545.207397,336.847565 1545.027100,346.769318 
	C1544.688354,365.413666 1541.556396,383.613129 1537.039062,401.657593 
	C1529.539673,431.612762 1517.748657,459.433502 1498.619385,484.028229 
	C1485.462036,500.944885 1469.764526,514.470642 1450.500244,523.817627 
	C1447.074463,525.479797 1443.454590,526.741943 1439.376343,528.413391 
	C1458.084351,556.480103 1472.230835,586.449890 1485.401733,617.963745 
	C1486.243896,616.055664 1486.647705,615.206848 1486.998413,614.336609 
	C1495.677246,592.802917 1503.924072,571.081482 1513.183105,549.800232 
	C1518.822144,536.839172 1525.811523,524.442566 1532.595093,512.011047 
	C1536.594727,504.681305 1541.085205,497.574127 1545.876831,490.732422 
	C1553.021729,480.530884 1560.089966,470.189514 1568.196045,460.772919 
	C1575.544189,452.236603 1583.776733,444.300964 1592.463501,437.121674 
	C1601.594849,429.574951 1611.728271,423.240784 1621.729370,416.160431 
	C1619.068359,409.165955 1615.575562,401.388245 1613.135132,393.293243 
	C1607.067017,373.164520 1603.398315,352.513916 1603.155396,331.488281 
	C1602.997437,317.829926 1603.969238,304.123627 1605.119263,290.496552 
	C1605.977783,280.322754 1607.495483,270.154510 1609.492310,260.137848 
	C1613.016968,242.456757 1617.314453,224.930878 1620.947510,207.269897 
	C1624.814697,188.469833 1630.615356,170.305222 1638.646118,152.922623 
	C1647.272949,134.250153 1657.551392,116.629173 1671.264771,100.996284 
	C1682.379883,88.325233 1694.708618,77.413490 1709.252686,68.987488 
	C1727.421143,58.461639 1746.930542,53.222927 1767.973755,55.095337 
	C1775.511230,55.766010 1783.042358,57.147175 1790.411499,58.898056 
	C1798.640137,60.853168 1806.542236,64.396667 1814.831665,65.841026 
	C1835.857544,69.504669 1853.825439,79.010460 1869.463745,93.072098 
	C1888.992065,110.631836 1901.587036,132.759186 1909.674194,157.460632 
	C1912.813599,167.049789 1914.637695,177.071655 1917.015747,186.907379 
	C1918.390503,192.593643 1919.674805,198.301743 1921.000000,204.000000 
	C1921.000000,223.358231 1921.000000,242.716476 1920.617432,262.669830 
	C1919.823364,264.984039 1919.321655,266.687256 1919.015503,268.424927 
	C1917.443970,277.340271 1916.177002,286.318390 1914.299194,295.167542 
	C1912.941162,301.566986 1910.339233,307.711853 1909.109985,314.126953 
	C1907.341187,323.358398 1907.168579,332.957001 1904.786499,341.996094 
	C1900.462891,358.401764 1895.814941,374.811127 1889.867554,390.681213 
	C1877.129028,424.672119 1857.972168,454.417175 1828.689453,476.770386 
	C1815.717529,486.672516 1801.398682,493.887787 1786.352539,497.177338 
	C1796.242065,516.871460 1806.762939,536.404419 1815.954712,556.543945 
	C1824.389282,575.024231 1832.334839,593.841309 1838.800171,613.079895 
	C1848.293823,641.329285 1856.741943,669.956848 1864.735107,698.673889 
	C1869.691528,716.480774 1873.157959,734.714417 1876.963501,752.825684 
	C1879.918091,766.887756 1882.430298,781.044678 1885.013428,795.182434 
	C1887.106323,806.638123 1889.168701,818.103699 1890.953369,829.610168 
	C1892.522705,839.729309 1893.677734,849.912354 1895.033813,860.064819 
	C1897.013916,874.889282 1899.228394,889.686462 1900.936646,904.541992 
	C1902.561890,918.673340 1903.784790,932.854736 1904.964111,947.032471 
	C1906.120605,960.936279 1907.122070,974.855652 1907.965088,988.781982 
	C1908.791748,1002.437744 1909.455200,1016.106262 1909.965088,1029.777588 
	C1910.458984,1043.018066 1910.778442,1056.267578 1910.966064,1069.516113 
	C1911.128906,1081.008545 1911.000000,1092.505249 1911.000000,1104.000000 
z"/>
<path fill="#FFFFFF" opacity="1.000000" stroke="none" 
	d="
M1005.531372,1.000000 
	C999.092468,2.769956 992.067932,4.179721 985.300171,6.379709 
	C967.435181,12.187016 951.811279,21.918179 937.432129,33.950813 
	C921.444946,47.329018 907.820435,62.846134 896.563660,80.194862 
	C883.174927,100.829140 871.896545,122.716904 865.092590,146.512894 
	C860.281860,163.337891 855.707031,180.283554 852.242737,197.421143 
	C850.019226,208.420319 849.804077,219.852783 849.061218,231.115585 
	C848.430420,240.680740 847.670166,250.315796 848.169312,259.857025 
	C848.781494,271.557739 850.771973,283.180298 851.936157,294.859650 
	C853.596008,311.511505 858.324463,327.372864 863.991150,342.999329 
	C871.188599,362.846985 880.882812,381.294647 894.808960,397.341156 
	C896.517517,399.309845 898.032593,401.446411 899.579956,403.431610 
	C892.625366,410.879059 885.054382,418.086975 878.557556,426.159302 
	C869.322693,437.633606 860.157410,449.287384 852.291809,461.706390 
	C843.972961,474.841064 836.343079,488.571503 829.967285,502.741364 
	C819.325317,526.392517 809.707947,550.515442 800.093079,574.612915 
	C795.823120,585.314514 792.610168,596.437927 788.917542,607.369934 
	C788.436768,608.793518 787.957275,610.217651 787.295898,612.179321 
	C762.766968,551.169739 736.089417,491.971100 686.203003,448.091095 
	C693.604431,436.133789 701.898987,424.419922 708.407959,411.786133 
	C716.335632,396.398743 722.355835,380.077087 725.977295,363.041595 
	C727.890442,354.042267 729.738342,344.995178 730.898621,335.878387 
	C732.323059,324.685699 733.549866,313.410400 733.809937,302.146545 
	C733.993408,294.200012 732.459412,286.209595 731.626770,278.245575 
	C731.152405,273.707855 730.184021,269.193573 730.063354,264.652100 
	C729.562317,245.791260 724.157654,228.054779 717.863220,210.542267 
	C711.963989,194.129318 703.967163,178.768707 694.061279,164.375793 
	C679.354553,143.007553 661.338806,125.374756 638.025574,113.498299 
	C624.242920,106.476982 609.845825,102.361931 594.303528,100.791031 
	C563.717468,97.699623 537.057312,107.264244 512.988159,124.742630 
	C487.797150,143.035660 470.034576,167.727203 457.715149,196.044632 
	C451.478180,210.380981 446.683929,225.443054 442.453033,240.518219 
	C439.800018,249.971207 438.935883,260.018921 438.112915,269.870270 
	C436.988281,283.332367 435.780151,296.892578 436.252411,310.353027 
	C436.712799,323.475800 438.397552,336.702820 441.087524,349.561371 
	C444.166321,364.278687 448.280212,378.868103 453.153137,393.099152 
	C459.326202,411.127075 468.328888,427.996185 480.483521,442.685364 
	C490.593140,454.903076 502.127350,465.942017 513.555725,478.059937 
	C477.989716,522.639099 455.001587,575.288574 435.207275,630.439270 
	C410.676849,554.748962 383.291656,481.175110 327.211243,421.402985 
	C330.392395,416.695129 334.333496,411.273407 337.848053,405.588013 
	C350.922546,384.437622 360.912506,361.908234 366.934753,337.754761 
	C369.973419,325.567566 373.373596,313.320801 374.711914,300.896454 
	C376.458710,284.680664 377.041840,268.250275 376.771973,251.934586 
	C376.553864,238.747116 374.358337,225.590073 372.993073,212.424393 
	C370.951691,192.738403 365.251709,173.997787 358.198303,155.615204 
	C351.018524,136.903152 341.724609,119.288483 329.965942,103.070839 
	C307.948730,72.704521 280.345032,49.652420 244.080200,37.926846 
	C226.799728,32.339520 209.042175,30.611643 191.212997,32.187828 
	C165.017975,34.503590 140.981400,43.912518 120.048180,59.710384 
	C96.824356,77.236923 78.207733,99.065948 63.963356,124.622772 
	C51.593666,146.816116 43.090664,170.461304 37.223373,195.002533 
	C34.404255,206.794098 33.419319,219.056824 32.078232,231.158768 
	C31.011675,240.783340 29.908747,250.506271 30.143969,260.153290 
	C30.811697,287.538452 33.589466,314.660675 41.482079,341.116486 
	C48.968479,366.210754 59.316334,389.854126 73.911331,411.668335 
	C83.169655,425.506195 93.658096,438.290955 106.038834,449.324554 
	C114.082474,456.493042 123.149956,462.512695 131.848007,469.114838 
	C116.527603,492.959930 103.128242,518.212402 92.706078,544.906616 
	C83.038879,569.667175 73.260078,594.453430 65.244629,619.771057 
	C56.482166,647.448181 49.274364,675.644226 42.178501,703.812927 
	C37.416531,722.716614 33.730701,741.910400 30.120626,761.079285 
	C27.301746,776.047180 25.353870,791.178528 22.993732,806.233337 
	C20.683393,820.970459 18.141197,835.674805 16.083185,850.446716 
	C14.709079,860.309753 14.085287,870.275085 12.978198,880.178162 
	C11.747249,891.189148 10.234115,902.169128 9.061255,913.185730 
	C8.193786,921.333740 7.540272,929.510498 7.027740,937.689209 
	C5.936368,955.104797 4.983781,972.529236 4.005666,989.951782 
	C3.626765,996.700928 3.391851,1003.458679 2.955095,1010.203674 
	C2.855795,1011.737305 2.191337,1013.234314 1.393504,1014.874084 
	C1.000000,677.073242 1.000000,339.146515 1.000000,1.000000 
	C335.687531,1.000000 670.375122,1.000000 1005.531372,1.000000 
z"/>
<path fill="#FFFFFF" opacity="1.000000" stroke="none" 
	d="
M1921.000000,203.531342 
	C1919.674805,198.301743 1918.390503,192.593643 1917.015747,186.907379 
	C1914.637695,177.071655 1912.813599,167.049789 1909.674194,157.460632 
	C1901.587036,132.759186 1888.992065,110.631836 1869.463745,93.072098 
	C1853.825439,79.010460 1835.857544,69.504669 1814.831665,65.841026 
	C1806.542236,64.396667 1798.640137,60.853168 1790.411499,58.898056 
	C1783.042358,57.147175 1775.511230,55.766010 1767.973755,55.095337 
	C1746.930542,53.222927 1727.421143,58.461639 1709.252686,68.987488 
	C1694.708618,77.413490 1682.379883,88.325233 1671.264771,100.996284 
	C1657.551392,116.629173 1647.272949,134.250153 1638.646118,152.922623 
	C1630.615356,170.305222 1624.814697,188.469833 1620.947510,207.269897 
	C1617.314453,224.930878 1613.016968,242.456757 1609.492310,260.137848 
	C1607.495483,270.154510 1605.977783,280.322754 1605.119263,290.496552 
	C1603.969238,304.123627 1602.997437,317.829926 1603.155396,331.488281 
	C1603.398315,352.513916 1607.067017,373.164520 1613.135132,393.293243 
	C1615.575562,401.388245 1619.068359,409.165955 1621.729370,416.160431 
	C1611.728271,423.240784 1601.594849,429.574951 1592.463501,437.121674 
	C1583.776733,444.300964 1575.544189,452.236603 1568.196045,460.772919 
	C1560.089966,470.189514 1553.021729,480.530884 1545.876831,490.732422 
	C1541.085205,497.574127 1536.594727,504.681305 1532.595093,512.011047 
	C1525.811523,524.442566 1518.822144,536.839172 1513.183105,549.800232 
	C1503.924072,571.081482 1495.677246,592.802917 1486.998413,614.336609 
	C1486.647705,615.206848 1486.243896,616.055664 1485.401733,617.963745 
	C1472.230835,586.449890 1458.084351,556.480103 1439.376343,528.413391 
	C1443.454590,526.741943 1447.074463,525.479797 1450.500244,523.817627 
	C1469.764526,514.470642 1485.462036,500.944885 1498.619385,484.028229 
	C1517.748657,459.433502 1529.539673,431.612762 1537.039062,401.657593 
	C1541.556396,383.613129 1544.688354,365.413666 1545.027100,346.769318 
	C1545.207397,336.847565 1546.107056,326.921844 1545.903687,317.013885 
	C1545.538696,299.237885 1542.907349,281.711792 1538.788208,264.402924 
	C1536.105957,253.131424 1534.165039,241.660065 1531.003784,230.530518 
	C1522.980469,202.283157 1509.953735,176.268066 1492.727051,152.622833 
	C1476.533936,130.396255 1456.483154,112.125572 1431.372925,100.106598 
	C1413.157837,91.388016 1393.734131,88.203400 1373.811768,90.161911 
	C1352.089355,92.297363 1333.048950,101.442696 1316.191772,115.275566 
	C1299.427979,129.031616 1286.893677,146.100021 1276.520630,164.946671 
	C1265.686523,184.630966 1258.350464,205.661453 1253.412231,227.448212 
	C1250.729980,239.282196 1249.287964,251.457397 1248.125366,263.559296 
	C1246.897217,276.341949 1245.878906,289.241180 1246.216919,302.051300 
	C1246.569458,315.411621 1248.769043,328.715820 1249.944946,342.063599 
	C1251.698608,361.969177 1256.744507,381.227814 1263.315063,399.875275 
	C1268.831543,415.530914 1276.906494,430.284882 1283.840332,445.441803 
	C1284.173340,446.169800 1284.427979,446.933685 1284.705688,447.646179 
	C1266.273560,454.467804 1250.299438,465.023499 1235.850830,478.457367 
	C1215.877930,497.027679 1199.685425,518.449829 1186.127686,541.879517 
	C1177.033081,557.596191 1168.898193,573.874756 1160.556396,590.016907 
	C1157.777710,595.393616 1155.689697,601.127136 1153.105103,607.116638 
	C1144.581421,584.031189 1137.182495,561.164856 1127.729004,539.182068 
	C1118.225830,517.083801 1106.995605,495.700623 1095.936523,474.306854 
	C1084.642822,452.459045 1069.701172,433.083313 1053.622559,415.075806 
	C1059.988892,409.312653 1066.362549,403.615631 1072.656494,397.831848 
	C1092.730347,379.385132 1107.346924,357.026184 1119.650024,332.906067 
	C1130.501831,311.631470 1138.235962,289.247375 1143.807983,266.144684 
	C1146.120483,256.556305 1146.585083,246.528900 1148.021973,236.720459 
	C1149.220215,228.540283 1150.611694,220.388412 1151.912964,212.223267 
	C1151.964844,211.898148 1151.978271,211.565948 1151.994873,211.236313 
	C1152.331299,204.484711 1153.360474,197.681366 1152.863403,190.991486 
	C1151.616577,174.214294 1150.120361,157.429993 1147.911133,140.756256 
	C1144.868408,117.792145 1137.517334,96.086494 1127.064087,75.400955 
	C1118.390259,58.236618 1107.468994,42.726944 1093.207520,29.807695 
	C1077.615479,15.683088 1059.456787,6.279348 1038.752930,2.044959 
	C1037.307129,1.749260 1035.778076,1.860753 1034.143799,1.391448 
	C1329.547974,1.000000 1625.096069,1.000000 1921.000000,1.000000 
	C1921.000000,68.353813 1921.000000,135.708252 1921.000000,203.531342 
z"/>
<path fill="#FFFFFF" opacity="1.000000" stroke="none" 
	d="
M1911.486572,1104.000000 
	C1911.000000,1092.505249 1911.128906,1081.008545 1910.966064,1069.516113 
	C1910.778442,1056.267578 1910.458984,1043.018066 1909.965088,1029.777588 
	C1909.455200,1016.106262 1908.791748,1002.437744 1907.965088,988.781982 
	C1907.122070,974.855652 1906.120605,960.936279 1904.964111,947.032471 
	C1903.784790,932.854736 1902.561890,918.673340 1900.936646,904.541992 
	C1899.228394,889.686462 1897.013916,874.889282 1895.033813,860.064819 
	C1893.677734,849.912354 1892.522705,839.729309 1890.953369,829.610168 
	C1889.168701,818.103699 1887.106323,806.638123 1885.013428,795.182434 
	C1882.430298,781.044678 1879.918091,766.887756 1876.963501,752.825684 
	C1873.157959,734.714417 1869.691528,716.480774 1864.735107,698.673889 
	C1856.741943,669.956848 1848.293823,641.329285 1838.800171,613.079895 
	C1832.334839,593.841309 1824.389282,575.024231 1815.954712,556.543945 
	C1806.762939,536.404419 1796.242065,516.871460 1786.352539,497.177338 
	C1801.398682,493.887787 1815.717529,486.672516 1828.689453,476.770386 
	C1857.972168,454.417175 1877.129028,424.672119 1889.867554,390.681213 
	C1895.814941,374.811127 1900.462891,358.401764 1904.786499,341.996094 
	C1907.168579,332.957001 1907.341187,323.358398 1909.109985,314.126953 
	C1910.339233,307.711853 1912.941162,301.566986 1914.299194,295.167542 
	C1916.177002,286.318390 1917.443970,277.340271 1919.015503,268.424927 
	C1919.321655,266.687256 1919.823364,264.984039 1920.617432,263.132477 
	C1921.000000,543.333313 1921.000000,823.666687 1921.000000,1104.000000 
	C1917.969849,1104.000000 1914.971436,1104.000000 1911.486572,1104.000000 
z"/>
<path fill="#FFFFFF" opacity="1.000000" stroke="none" 
	d="
M1.000000,1017.468567 
	C1.333333,1020.437073 1.832439,1023.868164 1.955438,1027.312744 
	C2.090333,1031.090576 1.878369,1034.880859 1.408776,1038.832764 
	C1.000000,1031.979004 1.000000,1024.958130 1.000000,1017.468567 
z"/>
</svg>